<svg width="36" height="36" viewBox="0 0 36 36" fill="none" xmlns="http://www.w3.org/2000/svg">
<path d="M14 0H2C1.46957 0 0.960859 0.210714 0.585786 0.585786C0.210714 0.960859 0 1.46957 0 2V14C0 14.5304 0.210714 15.0391 0.585786 15.4142C0.960859 15.7893 1.46957 16 2 16H14C14.5304 16 15.0391 15.7893 15.4142 15.4142C15.7893 15.0391 16 14.5304 16 14V2C16 1.46957 15.7893 0.960859 15.4142 0.585786C15.0391 0.210714 14.5304 0 14 0ZM34 20H22C21.4696 20 20.9609 20.2107 20.5858 20.5858C20.2107 20.9609 20 21.4696 20 22V34C20 34.5304 20.2107 35.0391 20.5858 35.4142C20.9609 35.7893 21.4696 36 22 36H34C34.5304 36 35.0391 35.7893 35.4142 35.4142C35.7893 35.0391 36 34.5304 36 34V22C36 21.4696 35.7893 20.9609 35.4142 20.5858C35.0391 20.2107 34.5304 20 34 20ZM28 0C23.588 0 20 3.588 20 8C20 12.412 23.588 16 28 16C32.412 16 36 12.412 36 8C36 3.588 32.412 0 28 0ZM8 20C3.588 20 0 23.588 0 28C0 32.412 3.588 36 8 36C12.412 36 16 32.412 16 28C16 23.588 12.412 20 8 20Z" fill="#424242"/>
</svg>
