<svg width="48" height="48" viewBox="0 0 48 48" fill="none" xmlns="http://www.w3.org/2000/svg">
<path fill-rule="evenodd" clip-rule="evenodd" d="M20.6347 1.39632L17.0187 5.00912C16.7267 5.30122 16.3309 5.46576 15.9179 5.46672H10.2283C7.59786 5.46672 5.46666 7.59792 5.46666 10.2283V15.9179C5.46666 16.3339 5.30026 16.7275 5.00906 17.0219L1.39306 20.6347C0.500428 21.5276 -0.00102234 22.7385 -0.00102234 24.0011C-0.00102234 25.2637 0.500428 26.4746 1.39306 27.3675L5.00906 30.9835C5.30116 31.2755 5.4657 31.6713 5.46666 32.0843V37.7739C5.46666 40.4043 7.59786 42.5355 10.2283 42.5355H15.9179C16.3339 42.5355 16.7275 42.7019 17.0219 42.9931L20.6347 46.6091C21.5276 47.5018 22.7385 48.0032 24.0011 48.0032C25.2636 48.0032 26.4745 47.5018 27.3675 46.6091L30.9835 42.9931C31.2754 42.701 31.6713 42.5365 32.0843 42.5355H37.7739C40.4043 42.5355 42.5355 40.4043 42.5355 37.7739V32.0843C42.5355 31.6683 42.7019 31.2747 42.9931 30.9803L46.6091 27.3675C47.5017 26.4746 48.0031 25.2637 48.0031 24.0011C48.0031 22.7385 47.5017 21.5276 46.6091 20.6347L42.9931 17.0187C42.701 16.7267 42.5364 16.3309 42.5355 15.9179V10.2283C42.5355 7.59792 40.4043 5.46672 37.7739 5.46672H32.0843C31.6701 5.4666 31.273 5.302 30.9803 5.00912L27.3675 1.39312C26.4745 0.500489 25.2636 -0.000961304 24.0011 -0.000961304C22.7385 -0.000961304 21.5276 0.500489 20.6347 1.39312V1.39632ZM14.8683 30.8683L30.8683 14.8683L33.1339 17.1339L17.1339 33.1339L14.8683 30.8683ZM16.0011 16.0011V19.2011H19.2011V16.0011H16.0011ZM28.8011 32.0011H32.0011V28.8011H28.8011V32.0011Z" fill="#424242"/>
</svg>
