<svg width="40" height="38" viewBox="0 0 40 38" fill="none" xmlns="http://www.w3.org/2000/svg">
<path d="M34 0H6.00005C2.69205 0 4.57764e-05 2.692 4.57764e-05 6V11.662C4.57764e-05 13.768 0.764046 15.682 2.00005 17.154V36C2.00005 36.5304 2.21076 37.0391 2.58583 37.4142C2.9609 37.7893 3.46961 38 4.00005 38H20C20.5305 38 21.0392 37.7893 21.4143 37.4142C21.7893 37.0391 22 36.5304 22 36V26H30V36C30 36.5304 30.2108 37.0391 30.5858 37.4142C30.9609 37.7893 31.4696 38 32 38H36C36.5305 38 37.0392 37.7893 37.4143 37.4142C37.7893 37.0391 38 36.5304 38 36V17.152C39.236 15.682 40 13.768 40 11.66V6C40 2.692 37.308 0 34 0ZM36 6V11.662C36 13.942 34.302 15.886 32.218 15.996L32 16C29.794 16 28 14.206 28 12V4H34C35.104 4 36 4.898 36 6ZM16 12V4H24V12C24 14.206 22.206 16 20 16C17.794 16 16 14.206 16 12ZM4.00005 6C4.00005 4.898 4.89605 4 6.00005 4H12V12C12 14.206 10.206 16 8.00005 16L7.78205 15.994C5.69805 15.886 4.00005 13.942 4.00005 11.662V6ZM16 28H8.00005V22H16V28Z" fill="#424242"/>
</svg>
