<svg width="42" height="44" viewBox="0 0 42 44" fill="none" xmlns="http://www.w3.org/2000/svg">
<path d="M37.1235 35.395C39.2777 32.8032 40.7759 29.7306 41.4915 26.4373C42.2071 23.144 42.1189 19.7267 41.2345 16.4747C40.3501 13.2226 38.6954 10.2314 36.4105 7.75404C34.1255 5.27672 31.2775 3.38616 28.1074 2.24231C24.9373 1.09845 21.5383 0.734947 18.1979 1.18255C14.8576 1.63015 11.6742 2.87568 8.91708 4.81379C6.15993 6.75189 3.91012 9.32554 2.35799 12.317C0.805856 15.3085 -0.00294389 18.6298 8.05147e-06 22C0.00114081 26.8993 1.72763 31.6417 4.87651 35.395L4.84651 35.4205C4.95151 35.5465 5.07151 35.6545 5.17951 35.779C5.31451 35.9335 5.46001 36.079 5.59951 36.229C6.01951 36.685 6.45151 37.123 6.90451 37.534C7.04251 37.66 7.18501 37.777 7.32451 37.897C7.80451 38.311 8.29801 38.704 8.80951 39.07C8.87551 39.115 8.93551 39.1735 9.00151 39.22V39.202C12.5147 41.6743 16.7057 43.0011 21.0015 43.0011C25.2974 43.0011 29.4884 41.6743 33.0015 39.202V39.22C33.0675 39.1735 33.126 39.115 33.1935 39.07C33.7035 38.7025 34.1985 38.311 34.6785 37.897C34.818 37.777 34.9605 37.6585 35.0985 37.534C35.5515 37.1215 35.9835 36.685 36.4035 36.229C36.543 36.079 36.687 35.9335 36.8235 35.779C36.93 35.6545 37.0515 35.5465 37.1565 35.419L37.1235 35.395ZM21 10C22.335 10 23.6401 10.3959 24.7501 11.1376C25.8601 11.8793 26.7253 12.9335 27.2362 14.1669C27.7471 15.4003 27.8808 16.7575 27.6203 18.0669C27.3599 19.3763 26.717 20.579 25.773 21.523C24.829 22.467 23.6262 23.1099 22.3169 23.3703C21.0075 23.6308 19.6503 23.4971 18.4169 22.9862C17.1835 22.4753 16.1293 21.6102 15.3876 20.5001C14.6459 19.3901 14.25 18.0851 14.25 16.75C14.25 14.9598 14.9612 13.2429 16.227 11.9771C17.4929 10.7112 19.2098 10 21 10ZM9.01051 35.395C9.03653 33.4255 9.83693 31.5454 11.2385 30.1614C12.6402 28.7775 14.5303 28.001 16.5 28H25.5C27.4697 28.001 29.3599 28.7775 30.7615 30.1614C32.1631 31.5454 32.9635 33.4255 32.9895 35.395C29.6998 38.3595 25.4284 40.0001 21 40.0001C16.5716 40.0001 12.3002 38.3595 9.01051 35.395Z" fill="#FFA53A"/>
</svg>
