<svg width="32" height="42" viewBox="0 0 32 42" fill="none" xmlns="http://www.w3.org/2000/svg">
<path d="M19.0767 21C19.0767 20.4937 18.8822 20.0081 18.536 19.6501C18.1897 19.292 17.7201 19.0909 17.2305 19.0909H0.614826V6.68182C0.614826 2.86364 4.51374 0 7.99957 0H25.5383C27.2515 0.00189504 28.894 0.706479 30.1054 1.95915C31.3168 3.21183 31.9982 4.91027 32 6.68182V35.3182C31.9982 37.0897 31.3168 38.7882 30.1054 40.0408C28.894 41.2935 27.2515 41.9981 25.5383 42H7.07648C5.36331 41.9981 3.72082 41.2935 2.50942 40.0408C1.29803 38.7882 0.616659 37.0897 0.614826 35.3182V22.9091H17.2305C17.7201 22.9091 18.1897 22.708 18.536 22.3499C18.8822 21.9919 19.0767 21.5063 19.0767 21Z" fill="#424242"/>
</svg>
