<svg width="40" height="36" viewBox="0 0 40 36" fill="none" xmlns="http://www.w3.org/2000/svg">
<path fill-rule="evenodd" clip-rule="evenodd" d="M0.5 1.38465C0.5 1.01742 0.636964 0.665241 0.880761 0.405575C1.12456 0.145909 1.45522 3.05176e-05 1.8 3.05176e-05H7C7.34478 3.05176e-05 7.67544 0.145909 7.91924 0.405575C8.16304 0.665241 8.3 1.01742 8.3 1.38465C8.3 1.75187 8.16304 2.10405 7.91924 2.36372C7.67544 2.62338 7.34478 2.76926 7 2.76926H1.8C1.45522 2.76926 1.12456 2.62338 0.880761 2.36372C0.636964 2.10405 0.5 1.75187 0.5 1.38465ZM10.9 1.38465C10.9 1.01742 11.037 0.665241 11.2808 0.405575C11.5246 0.145909 11.8552 3.05176e-05 12.2 3.05176e-05H38.2C38.5448 3.05176e-05 38.8754 0.145909 39.1192 0.405575C39.363 0.665241 39.5 1.01742 39.5 1.38465C39.5 1.75187 39.363 2.10405 39.1192 2.36372C38.8754 2.62338 38.5448 2.76926 38.2 2.76926H12.2C11.8552 2.76926 11.5246 2.62338 11.2808 2.36372C11.037 2.10405 10.9 1.75187 10.9 1.38465ZM10.9 9.69234C10.9 9.32512 11.037 8.97293 11.2808 8.71327C11.5246 8.4536 11.8552 8.30772 12.2 8.30772H30.4C30.7448 8.30772 31.0754 8.4536 31.3192 8.71327C31.563 8.97293 31.7 9.32512 31.7 9.69234C31.7 10.0596 31.563 10.4117 31.3192 10.6714C31.0754 10.9311 30.7448 11.077 30.4 11.077H12.2C11.8552 11.077 11.5246 10.9311 11.2808 10.6714C11.037 10.4117 10.9 10.0596 10.9 9.69234ZM0.5 18C0.5 17.6328 0.636964 17.2806 0.880761 17.021C1.12456 16.7613 1.45522 16.6154 1.8 16.6154H7C7.34478 16.6154 7.67544 16.7613 7.91924 17.021C8.16304 17.2806 8.3 17.6328 8.3 18C8.3 18.3673 8.16304 18.7194 7.91924 18.9791C7.67544 19.2388 7.34478 19.3846 7 19.3846H1.8C1.45522 19.3846 1.12456 19.2388 0.880761 18.9791C0.636964 18.7194 0.5 18.3673 0.5 18ZM10.9 18C10.9 17.6328 11.037 17.2806 11.2808 17.021C11.5246 16.7613 11.8552 16.6154 12.2 16.6154H38.2C38.5448 16.6154 38.8754 16.7613 39.1192 17.021C39.363 17.2806 39.5 17.6328 39.5 18C39.5 18.3673 39.363 18.7194 39.1192 18.9791C38.8754 19.2388 38.5448 19.3846 38.2 19.3846H12.2C11.8552 19.3846 11.5246 19.2388 11.2808 18.9791C11.037 18.7194 10.9 18.3673 10.9 18ZM10.9 26.3077C10.9 25.9405 11.037 25.5883 11.2808 25.3287C11.5246 25.069 11.8552 24.9231 12.2 24.9231H30.4C30.7448 24.9231 31.0754 25.069 31.3192 25.3287C31.563 25.5883 31.7 25.9405 31.7 26.3077C31.7 26.6749 31.563 27.0271 31.3192 27.2868C31.0754 27.5465 30.7448 27.6923 30.4 27.6923H12.2C11.8552 27.6923 11.5246 27.5465 11.2808 27.2868C11.037 27.0271 10.9 26.6749 10.9 26.3077ZM0.5 34.6154C0.5 34.2482 0.636964 33.896 0.880761 33.6363C1.12456 33.3767 1.45522 33.2308 1.8 33.2308H7C7.34478 33.2308 7.67544 33.3767 7.91924 33.6363C8.16304 33.896 8.3 34.2482 8.3 34.6154C8.3 34.9826 8.16304 35.3348 7.91924 35.5945C7.67544 35.8542 7.34478 36 7 36H1.8C1.45522 36 1.12456 35.8542 0.880761 35.5945C0.636964 35.3348 0.5 34.9826 0.5 34.6154ZM10.9 34.6154C10.9 34.2482 11.037 33.896 11.2808 33.6363C11.5246 33.3767 11.8552 33.2308 12.2 33.2308H38.2C38.5448 33.2308 38.8754 33.3767 39.1192 33.6363C39.363 33.896 39.5 34.2482 39.5 34.6154C39.5 34.9826 39.363 35.3348 39.1192 35.5945C38.8754 35.8542 38.5448 36 38.2 36H12.2C11.8552 36 11.5246 35.8542 11.2808 35.5945C11.037 35.3348 10.9 34.9826 10.9 34.6154Z" fill="#424242"/>
</svg>
