<svg width="46" height="38" viewBox="0 0 46 38" fill="none" xmlns="http://www.w3.org/2000/svg">
<path d="M23 0.66664C18.8036 0.661833 14.6935 1.85802 11.1551 4.11394C7.61666 6.36985 4.79773 9.59126 3.0312 13.3977C1.26468 17.2041 0.624354 21.4366 1.18586 25.5953C1.74736 29.7539 3.48724 33.665 6.2 36.8666L6.6 37.3333H39.4L39.8 36.8666C42.5128 33.665 44.2526 29.7539 44.8141 25.5953C45.3756 21.4366 44.7353 17.2041 42.9688 13.3977C41.2023 9.59126 38.3833 6.36985 34.8449 4.11394C31.3065 1.85802 27.1964 0.661833 23 0.66664ZM34.4667 13.3066L26.5733 21.0533C26.9768 21.9062 27.0657 22.8743 26.8245 23.7864C26.5832 24.6986 26.0273 25.4961 25.255 26.038C24.4826 26.58 23.5436 26.8314 22.6037 26.748C21.6639 26.6646 20.7838 26.2516 20.119 25.5821C19.4542 24.9126 19.0475 24.0296 18.9707 23.0892C18.8939 22.1488 19.152 21.2116 19.6994 20.4431C20.2468 19.6746 21.0482 19.1243 21.962 18.8895C22.8759 18.6547 23.8433 18.7505 24.6933 19.16L32.5733 11.4133L34.4667 13.3066ZM3.8 21.5333H8.33333V24.2H3.74667C3.74667 23.68 3.68 23.1733 3.68 22.64C3.68 22.1066 3.70667 21.9066 3.73333 21.5333H3.8ZM10.3067 8.19997L13.5867 11.48L11.6267 13.32L8.33333 10.0533C8.92443 9.37895 9.56151 8.74632 10.24 8.15997L10.3067 8.19997ZM24.3333 8.05331H21.6667V3.38664H23C23.4933 3.38664 23.9333 3.38664 24.3333 3.45331V8.05331ZM42.32 22.6533C42.32 23.1733 42.32 23.7066 42.2533 24.2133H37.56V21.5466H42.2667C42.2933 21.9066 42.32 22.28 42.32 22.6533Z" fill="#424242"/>
</svg>
