<svg width="44" height="34" viewBox="0 0 44 34" fill="none" xmlns="http://www.w3.org/2000/svg">
<path d="M3.28005 0.399994H40.4801C42.1601 0.399994 43.6001 1.83999 43.6001 3.27999V30.88C43.6001 32.56 42.16 33.76 40.7201 33.76H3.28005C1.84005 34 0.400055 32.56 0.400055 31.12V3.27999C0.400055 1.83999 1.84005 0.399994 3.28005 0.399994ZM38.8001 29.2V5.19999H5.20005V29.2H38.8001ZM29.2001 19.6C29.2001 19.6 29.2001 7.59999 36.4001 7.59999V24.4C36.4001 25.84 35.4401 26.8 34.0001 26.8H10.0001C8.56005 26.8 7.60005 25.84 7.60005 24.4V14.8C12.4001 14.8 14.8001 24.4 14.8001 24.4C14.8001 24.4 17.2001 14.8 22.0001 14.8C26.8001 14.8 29.2001 19.6 29.2001 19.6Z" fill="#424242"/>
</svg>
