<svg width="40" height="28" viewBox="0 0 40 28" fill="none" xmlns="http://www.w3.org/2000/svg">
<path d="M38 -3.05176e-05H2.00005C1.46961 -3.05176e-05 0.960905 0.210684 0.585832 0.585756C0.210759 0.960829 4.57764e-05 1.46954 4.57764e-05 1.99997V9.99997H1.78605C3.77805 9.99997 5.62605 11.362 5.94605 13.328C6.04353 13.902 6.01457 14.4905 5.86118 15.0522C5.70778 15.6139 5.43366 16.1354 5.05793 16.5803C4.68221 17.0251 4.21393 17.3826 3.68578 17.6278C3.15763 17.873 2.58234 18 2.00005 18H4.57764e-05V26C4.57764e-05 26.5304 0.210759 27.0391 0.585832 27.4142C0.960905 27.7893 1.46961 28 2.00005 28H38C38.5305 28 39.0392 27.7893 39.4143 27.4142C39.7893 27.0391 40 26.5304 40 26V18H38C37.4178 18 36.8425 17.873 36.3143 17.6278C35.7862 17.3826 35.3179 17.0251 34.9422 16.5803C34.5664 16.1354 34.2923 15.6139 34.1389 15.0522C33.9855 14.4905 33.9566 13.902 34.054 13.328C34.374 11.362 36.222 9.99997 38.214 9.99997H40V1.99997C40 1.46954 39.7893 0.960829 39.4143 0.585756C39.0392 0.210684 38.5305 -3.05176e-05 38 -3.05176e-05ZM18 24H14V20H18V24ZM18 16H14V12H18V16ZM18 7.99997H14V3.99997H18V7.99997Z" fill="#424242"/>
</svg>
